<?xml version="1.0" standalone="no"?>
<!DOCTYPE svg PUBLIC "-//W3C//DTD SVG 20010904//EN"
 "http://www.w3.org/TR/2001/REC-SVG-20010904/DTD/svg10.dtd">
<svg version="1.0" xmlns="http://www.w3.org/2000/svg"
 width="1024.000000pt" height="1024.000000pt" viewBox="0 0 1024.000000 1024.000000"
 preserveAspectRatio="xMidYMid meet">

<g transform="translate(0.000000,1024.000000) scale(0.100000,-0.100000)"
fill="#000000" stroke="none">
<path d="M6855 8488 c-76 -27 -125 -89 -146 -187 l-10 -50 -69 6 c-86 7 -123
-7 -156 -59 l-24 -38 -224 0 c-190 0 -234 -3 -300 -20 -159 -40 -259 -123
-331 -272 -78 -161 -75 -108 -75 -1351 1 -1146 5 -1323 38 -1418 61 -173 130
-258 266 -324 51 -25 117 -50 148 -55 37 -7 377 -10 1000 -8 942 3 943 3 1000
25 160 61 265 176 330 363 l33 95 0 1250 c0 1162 -1 1255 -18 1319 -43 169
-144 290 -287 346 -120 46 -149 49 -387 50 -177 0 -223 3 -223 13 0 18 -49 64
-83 76 -16 6 -59 11 -96 11 l-68 0 -22 68 c-28 85 -58 124 -115 151 -50 23
-129 27 -181 9z m136 -198 c10 -19 26 -52 33 -72 l15 -38 101 0 c99 0 101 0
110 -26 15 -37 13 -114 -3 -120 -7 -2 -59 2 -116 11 -81 12 -147 14 -312 9
l-209 -7 0 35 c0 20 3 50 6 68 l7 32 107 -7 107 -7 17 58 c28 90 41 106 83
102 29 -2 39 -10 54 -38z m-506 -320 c47 -74 41 -74 459 -65 402 8 403 8 449
66 l24 31 229 -4 c224 -3 230 -4 287 -30 118 -56 189 -142 217 -268 16 -69 25
-2323 11 -2468 -16 -159 -84 -264 -209 -324 -63 -30 -75 -32 -217 -38 -82 -4
-508 -4 -945 0 l-795 6 -57 22 c-111 45 -178 127 -219 269 -18 65 -19 113 -19
1278 0 1333 -3 1265 62 1387 33 62 73 99 148 139 43 23 57 24 285 29 132 4
246 7 252 8 7 1 24 -16 38 -38z"/>
<path d="M6096 7683 l-29 -5 7 -66 c3 -37 6 -83 6 -102 1 -30 2 -32 11 -16 7
11 9 41 5 77 -7 57 -6 59 16 59 13 0 39 -8 58 -18 34 -16 35 -20 40 -82 l5
-65 55 -1 55 -1 -50 6 -50 6 0 50 0 50 40 0 c22 1 75 2 118 3 l77 2 0 29 c0
16 -4 41 -10 55 l-10 26 -157 -1 c-87 -1 -171 -4 -187 -6z"/>
<path d="M6570 7665 c-12 -32 -13 -452 -1 -514 5 -24 15 -48 22 -53 19 -12 90
-3 101 14 5 7 7 56 6 108 l-2 95 69 6 c39 3 93 3 121 1 l51 -5 7 -60 c3 -33 6
-79 6 -102 0 -56 17 -70 73 -59 l42 9 8 120 c10 155 1 433 -14 452 -8 9 -28
13 -58 11 l-46 -3 -5 -115 -5 -115 -121 -3 -121 -3 -9 118 -9 118 -53 3 c-48
3 -53 1 -62 -23z"/>
<path d="M7218 7683 c-17 -4 -18 -26 -18 -282 0 -202 3 -280 12 -289 7 -7 28
-12 48 -12 68 0 65 -10 61 292 -2 165 -7 278 -13 286 -10 12 -55 14 -90 5z"/>
<path d="M7444 7675 c-3 -7 -4 -133 -1 -279 3 -192 8 -270 17 -281 16 -20 74
-19 94 1 12 11 16 36 16 95 l0 79 48 0 47 0 55 -82 c71 -105 94 -122 140 -107
19 6 41 12 47 15 8 2 -11 40 -53 105 -36 55 -64 102 -62 102 48 24 66 40 85
77 21 38 24 56 21 112 -3 63 -6 70 -43 109 -61 63 -83 69 -255 69 -122 0 -152
-3 -156 -15z m297 -124 c39 -39 40 -91 3 -120 -22 -17 -41 -21 -100 -21 l-74
0 0 85 0 85 71 0 c65 0 73 -2 100 -29z"/>
<path d="M5968 7483 c6 -2 18 -2 25 0 6 3 1 5 -13 5 -14 0 -19 -2 -12 -5z"/>
<path d="M6395 7403 c2 -35 -2 -61 -9 -65 -6 -4 -48 -8 -93 -8 -45 0 -84 -4
-87 -8 -3 -5 -6 -39 -8 -77 -3 -80 -23 -115 -68 -115 -30 0 -32 4 -46 122 -3
32 -13 63 -21 70 -19 16 -143 19 -143 3 0 -7 24 -11 73 -11 l72 1 6 -93 c3
-51 10 -97 16 -103 16 -16 76 -22 106 -10 27 10 27 11 27 111 l0 101 100 -7
100 -7 0 77 c0 58 -3 76 -14 76 -10 0 -13 -14 -11 -57z"/>
<path d="M6600 6955 l-32 -56 -34 38 c-18 21 -33 41 -34 46 0 4 -8 7 -17 7
-16 0 -17 -9 -13 -79 3 -44 9 -83 13 -87 16 -16 28 21 23 69 -3 26 -3 47 -1
47 2 0 13 -20 23 -44 24 -54 39 -64 51 -34 5 13 18 31 29 41 19 17 20 17 26
-5 3 -13 6 -38 6 -56 0 -22 4 -32 12 -30 17 6 11 168 -7 186 -10 11 -18 4 -45
-43z m50 -10 c0 -8 -4 -15 -10 -15 -5 0 -10 7 -10 15 0 8 5 15 10 15 6 0 10
-7 10 -15z"/>
<path d="M6050 6910 l0 -90 38 -2 c46 -1 85 2 92 8 9 10 -26 24 -62 24 l-38 0
0 75 c0 60 -3 75 -15 75 -12 0 -15 -17 -15 -90z"/>
<path d="M6244 6978 c3 -13 6 -55 6 -93 l0 -71 38 3 c93 9 114 30 35 35 l-48
3 0 73 c0 64 -2 72 -19 72 -14 0 -17 -5 -12 -22z"/>
<path d="M7143 6974 c-20 -15 -33 -34 -32 -47 0 -15 2 -17 6 -7 12 32 37 50
69 50 50 0 69 -47 42 -104 -15 -34 -41 -41 -74 -19 -27 17 -27 17 -15 -5 15
-29 52 -28 87 1 37 32 39 95 5 131 -31 32 -48 32 -88 0z"/>
<path d="M7560 6908 l0 -88 55 0 c30 0 55 5 55 10 0 6 -23 10 -51 10 -49 0
-50 1 -47 28 2 22 8 28 36 30 43 4 41 22 -3 22 -32 0 -35 2 -35 30 0 29 1 30
47 30 59 0 49 12 -12 14 l-45 1 0 -87z"/>
<path d="M7761 6991 c-8 -5 -10 -14 -6 -21 4 -7 11 -38 15 -69 l7 -56 2 78 c0
42 0 77 -1 77 -2 0 -9 -4 -17 -9z"/>
<path d="M6990 6979 c0 -10 -28 -77 -37 -88 -1 -2 -21 17 -44 42 -22 26 -45
47 -50 47 -11 0 -11 -45 -1 -120 l7 -55 5 75 5 75 34 -58 c37 -63 35 -63 73 8
19 36 22 38 29 20 6 -15 8 -9 8 23 1 31 -3 42 -14 42 -8 0 -15 -5 -15 -11z"/>
<path d="M7347 6965 c5 -21 7 -22 20 -10 17 18 23 18 57 5 42 -16 51 -45 26
-88 l-22 -37 26 28 c30 32 32 47 11 86 -17 33 -33 41 -84 41 -35 0 -38 -2 -34
-25z"/>
<path d="M7813 6843 c-70 -5 -68 -23 2 -23 42 0 55 3 55 15 0 8 -1 14 -2 13
-2 -1 -27 -3 -55 -5z"/>
<path d="M7350 6828 c0 -5 11 -8 25 -8 14 0 25 4 25 9 0 5 -11 8 -25 7 -14 0
-25 -4 -25 -8z"/>
<path d="M7640 6550 l-205 -6 220 -1 c217 -1 255 -5 255 -26 0 -6 3 -7 7 -4
11 12 -29 47 -51 45 -12 -1 -113 -5 -226 -8z"/>
<path d="M6728 6543 c50 -2 134 -2 185 0 50 1 9 3 -93 3 -102 0 -143 -2 -92
-3z"/>
<path d="M7248 6543 c28 -2 76 -2 105 0 28 2 5 3 -53 3 -58 0 -81 -1 -52 -3z"/>
<path d="M6983 6203 c65 -2 168 -2 230 0 62 1 9 3 -118 3 -126 0 -177 -2 -112
-3z"/>
<path d="M7720 6200 c91 -3 171 -9 178 -13 6 -5 13 -18 13 -30 1 -18 2 -19 6
-4 3 10 -3 27 -13 38 -16 17 -30 19 -183 17 l-166 -2 165 -6z"/>
<path d="M6132 5735 c0 -16 2 -22 5 -12 2 9 2 23 0 30 -3 6 -5 -1 -5 -18z"/>
<path d="M5935 5560 c4 -6 11 -8 16 -5 14 9 11 15 -7 15 -8 0 -12 -5 -9 -10z"/>
<path d="M6534 5425 c0 -77 2 -107 3 -67 2 40 2 103 0 140 -2 37 -3 4 -3 -73z"/>
<path d="M5941 5308 l-1 -38 49 0 c28 0 52 3 54 8 3 4 -16 7 -41 7 -44 0 -47
2 -53 30 -6 29 -7 29 -8 -7z"/>
<path d="M7050 5215 l0 -125 24 0 c23 0 25 5 28 48 l3 47 48 3 c66 4 64 29 -3
38 -47 6 -50 9 -50 35 0 26 4 28 48 35 47 7 72 19 72 35 0 5 -38 9 -85 9 l-85
0 0 -125z"/>
<path d="M7307 5333 c-4 -3 -7 -57 -7 -120 l0 -113 25 0 c23 0 25 4 25 45 l0
45 55 0 55 0 0 -50 c0 -44 3 -50 20 -50 27 0 28 4 33 138 l5 112 -29 0 c-28 0
-29 -2 -29 -50 l0 -50 -59 0 -58 0 5 50 c4 45 2 50 -15 50 -11 0 -23 -3 -26
-7z"/>
<path d="M7720 5214 l0 -124 25 0 c19 0 25 5 25 23 0 37 12 67 26 67 7 0 26
-17 41 -37 33 -45 43 -53 66 -53 23 0 22 23 -3 45 -33 29 -34 53 -6 90 20 25
25 41 20 60 -9 36 -38 48 -121 51 l-73 2 0 -124z m140 59 c0 -10 -7 -26 -14
-36 -18 -24 -69 -20 -74 6 -7 35 6 47 48 47 32 0 40 -4 40 -17z"/>
<path d="M7590 5215 l0 -115 30 0 30 0 0 115 0 115 -30 0 -30 0 0 -115z"/>
<path d="M6130 5138 c0 -12 7 -18 23 -17 15 0 17 2 7 6 -8 3 -18 11 -22 17 -5
7 -8 4 -8 -6z"/>
<path d="M4000 8297 c-197 -55 -346 -247 -496 -637 -24 -63 -48 -122 -53 -130
-6 -11 -32 -16 -109 -18 l-101 -3 9 28 c4 15 37 89 72 163 96 200 113 256 113
372 0 91 -2 99 -30 139 -49 70 -75 83 -165 87 -67 4 -87 0 -133 -21 -166 -76
-283 -193 -412 -412 -68 -115 -160 -323 -187 -422 l-21 -78 2 -2475 c1 -1664
5 -2486 12 -2510 6 -19 14 -47 18 -61 4 -14 4 -50 -1 -80 -4 -30 -11 -87 -14
-126 -7 -72 -6 -73 26 -103 17 -16 36 -28 40 -25 11 7 60 -16 60 -27 0 -5 4
-7 9 -4 5 3 12 54 16 113 5 60 9 1253 10 2653 2 2685 1 2626 46 2765 33 99
131 294 199 393 72 106 149 179 234 222 74 37 90 38 105 1 17 -39 -3 -111 -91
-330 -39 -97 -76 -195 -83 -219 -7 -24 -20 -53 -28 -65 -16 -26 -28 -100 -21
-137 l6 -25 430 -3 c367 -3 436 -6 461 -19 32 -16 231 -94 427 -167 164 -61
437 -190 495 -234 34 -26 60 -57 82 -101 18 -34 30 -67 27 -73 -4 -6 -61 -7
-155 -2 -165 8 -179 4 -179 -48 0 -44 26 -91 61 -112 20 -12 60 -19 124 -23
l95 -6 0 -57 c0 -38 -5 -62 -15 -70 -8 -6 -47 -16 -87 -21 -98 -12 -140 -27
-136 -47 9 -44 129 -82 212 -67 42 8 45 0 17 -60 -26 -55 -84 -109 -156 -142
l-60 -28 -415 -3 c-228 -1 -425 -4 -437 -7 -20 -5 -23 -12 -23 -51 0 -37 5
-51 29 -75 28 -28 34 -29 123 -31 51 -1 106 -2 121 -1 l29 1 -7 -417 c-8 -418
-4 -515 18 -509 7 2 44 21 83 43 l71 39 7 126 c3 69 6 256 6 415 l0 290 188 0
c164 1 196 3 257 22 133 42 274 160 329 277 68 144 106 465 72 609 -23 98 -59
167 -120 230 -78 82 -235 156 -784 367 -62 24 -116 48 -121 54 -6 7 8 58 40
141 176 455 190 537 113 657 -44 69 -158 102 -254 75z m81 -177 c37 -21 17
-161 -51 -345 -12 -33 -30 -85 -41 -115 -35 -100 -73 -165 -95 -162 -10 1 -76
5 -146 9 -123 6 -126 6 -118 27 117 287 174 396 252 482 61 66 103 93 176 113
2 1 12 -4 23 -9z"/>
<path d="M8886 7787 c3 -10 9 -15 12 -12 3 3 0 11 -7 18 -10 9 -11 8 -5 -6z"/>
<path d="M8926 7667 c3 -10 9 -15 12 -12 3 3 0 11 -7 18 -10 9 -11 8 -5 -6z"/>
<path d="M8946 7597 c3 -10 9 -15 12 -12 3 3 0 11 -7 18 -10 9 -11 8 -5 -6z"/>
<path d="M8960 7533 c0 -4 5 -15 10 -23 8 -13 10 -13 10 2 0 9 -4 20 -10 23
-5 3 -10 3 -10 -2z"/>
<path d="M8988 7433 c5 -21 7 -23 10 -9 2 10 0 22 -6 28 -6 6 -7 0 -4 -19z"/>
<path d="M9002 7345 c0 -11 4 -33 8 -50 l8 -30 0 30 c0 17 -3 39 -8 50 l-9 20
1 -20z"/>
<path d="M3502 6989 c-136 -77 -158 -247 -49 -366 52 -56 106 -83 172 -83 127
0 228 107 228 240 0 185 -193 300 -351 209z"/>
<path d="M2817 6944 c-14 -14 -6 -24 19 -24 16 0 24 5 22 13 -5 14 -31 21 -41
11z"/>
<path d="M4353 4790 c-35 -14 -50 -48 -72 -155 -11 -55 -60 -264 -109 -465
-50 -201 -98 -409 -107 -462 -10 -54 -22 -104 -29 -111 -9 -12 -86 -17 -394
-25 -411 -12 -418 -13 -461 -68 -26 -33 -26 -60 -1 -101 39 -65 35 -65 512
-61 l430 3 21 25 c14 16 42 97 76 219 l55 193 13 -38 c23 -65 51 -268 73 -519
11 -132 29 -283 39 -335 11 -52 29 -172 41 -265 11 -94 26 -186 32 -205 16
-52 53 -97 93 -110 49 -16 102 10 131 65 23 41 94 309 94 351 0 13 22 110 49
216 27 106 61 249 76 318 15 69 40 169 56 224 16 54 29 108 29 120 1 11 30
-39 66 -112 36 -73 75 -139 87 -146 18 -12 63 -13 267 -7 153 5 253 12 267 19
39 21 63 62 63 107 0 36 -5 48 -31 69 l-31 26 -208 0 c-154 0 -210 3 -217 13
-6 6 -25 55 -43 107 -56 163 -111 294 -133 318 -27 29 -78 43 -120 31 -72 -20
-111 -97 -142 -284 -9 -55 -25 -138 -36 -185 -11 -47 -31 -139 -45 -205 -34
-161 -91 -381 -106 -408 -12 -22 -12 -21 -19 8 -4 17 -7 59 -8 95 -1 36 -8
126 -16 200 -17 156 -21 196 -36 383 -7 89 -18 159 -31 195 -11 31 -20 74 -19
96 1 49 20 113 38 127 18 15 17 137 -2 264 -18 116 -41 284 -50 369 -11 94
-67 136 -142 106z"/>
<path d="M6465 4028 c-146 -28 -291 -147 -363 -298 -52 -111 -67 -174 -66
-290 1 -82 5 -106 33 -177 54 -139 131 -230 408 -482 98 -89 196 -182 217
-207 64 -75 185 -173 229 -185 34 -9 45 -7 92 16 30 14 82 54 118 88 35 34 90
86 123 116 32 30 164 158 292 284 250 246 282 288 317 424 30 116 12 292 -44
419 -30 67 -114 167 -174 207 -65 43 -176 84 -254 93 -121 13 -245 -36 -362
-142 l-73 -68 -27 31 c-68 78 -191 149 -299 172 -61 13 -97 13 -167 -1z m177
-192 c56 -16 134 -67 213 -139 78 -70 99 -81 127 -66 12 6 58 46 103 88 92 87
154 121 236 128 88 8 141 -4 208 -47 108 -70 160 -171 168 -325 3 -49 1 -108
-4 -130 l-9 -40 -118 0 -118 0 -49 98 c-83 169 -100 187 -173 187 -57 0 -91
-18 -110 -58 -33 -69 -66 -164 -100 -291 -19 -69 -40 -139 -47 -156 l-11 -30
-13 30 c-8 17 -25 87 -39 155 -30 142 -88 278 -130 306 -33 21 -107 15 -143
-12 -14 -11 -46 -58 -72 -106 -26 -48 -52 -93 -59 -100 -8 -8 -63 -17 -133
-23 -141 -12 -133 -17 -147 96 -23 187 58 358 201 425 60 28 147 32 219 10z
m606 -558 c10 -18 29 -59 42 -91 15 -38 31 -62 45 -67 11 -4 61 -6 110 -2 l90
5 -52 -59 c-28 -32 -107 -113 -175 -179 -253 -246 -311 -295 -350 -295 -21 0
-139 101 -298 255 -63 61 -152 144 -197 184 -46 41 -83 78 -83 82 0 5 47 9
104 9 l103 0 47 70 c25 38 46 74 46 80 0 5 3 10 8 10 10 0 38 -81 72 -205 38
-141 78 -246 102 -272 18 -20 32 -23 90 -23 87 0 105 16 137 120 81 269 127
410 133 410 3 0 15 -15 26 -32z"/>
<path d="M8215 3501 c-29 -12 -52 -42 -59 -76 -13 -62 72 -141 137 -128 16 3
44 20 63 38 76 72 22 177 -89 174 -18 0 -41 -4 -52 -8z"/>
<path d="M1663 3170 c0 -25 2 -35 4 -22 2 12 2 32 0 45 -2 12 -4 2 -4 -23z"/>
<path d="M9007 3007 c-5 -27 -6 -51 -3 -54 8 -8 18 42 14 73 -3 24 -5 20 -11
-19z"/>
<path d="M8987 2886 c-5 -15 -6 -31 -3 -34 8 -8 18 25 14 45 -3 13 -6 10 -11
-11z"/>
<path d="M8967 2817 c-11 -29 -9 -53 4 -40 6 6 9 21 7 34 -3 21 -4 22 -11 6z"/>
<path d="M8946 2744 c-4 -9 -4 -19 -1 -22 2 -3 7 3 11 12 4 9 4 19 1 22 -2 3
-7 -3 -11 -12z"/>
<path d="M8926 2674 c-4 -9 -4 -19 -1 -22 2 -3 7 3 11 12 4 9 4 19 1 22 -2 3
-7 -3 -11 -12z"/>
<path d="M8901 2609 c-5 -13 -16 -42 -25 -63 -21 -51 -13 -59 9 -9 9 21 22 48
28 60 6 13 7 26 4 29 -4 4 -11 -4 -16 -17z"/>
<path d="M1800 2541 c0 -6 4 -13 10 -16 6 -3 7 1 4 9 -7 18 -14 21 -14 7z"/>
<path d="M1820 2501 c0 -6 4 -13 10 -16 6 -3 7 1 4 9 -7 18 -14 21 -14 7z"/>
<path d="M8839 2468 c-6 -12 -23 -42 -36 -65 -14 -24 -20 -43 -15 -43 5 0 12
8 15 18 4 9 18 37 32 61 14 24 24 45 21 48 -2 3 -10 -6 -17 -19z"/>
<path d="M8756 2325 c-9 -14 -13 -25 -9 -25 10 0 36 40 30 46 -2 3 -12 -7 -21
-21z"/>
<path d="M1956 2277 c3 -10 9 -15 12 -12 3 3 0 11 -7 18 -10 9 -11 8 -5 -6z"/>
<path d="M8610 2162 c-69 -70 -146 -145 -171 -167 -25 -22 -36 -33 -25 -25 12
8 23 17 26 20 3 3 21 17 41 32 68 51 280 271 257 267 -2 0 -59 -57 -128 -127z"/>
<path d="M1998 2225 c30 -43 71 -89 76 -84 2 2 -19 29 -47 59 -27 30 -41 42
-29 25z"/>
<path d="M2123 2083 c26 -29 69 -72 95 -96 26 -24 58 -54 72 -66 35 -32 227
-161 240 -161 5 0 10 -4 10 -10 0 -5 9 -10 19 -10 11 0 21 -3 23 -7 4 -10 57
-42 81 -50 9 -3 17 -9 17 -14 0 -5 9 -9 20 -9 11 0 28 -4 38 -9 9 -5 40 -19
67 -32 28 -13 52 -27 53 -31 2 -5 11 -8 21 -8 9 0 21 -4 27 -10 5 -5 215 -11
529 -14 286 -2 546 -7 577 -11 31 -4 77 -3 101 3 33 7 61 5 108 -6 71 -17 245
-30 504 -37 94 -3 179 -10 190 -15 24 -11 93 -19 230 -26 55 -3 109 -9 120
-13 85 -36 227 -38 765 -10 264 14 473 15 559 4 32 -4 62 -3 75 4 11 6 57 13
101 15 44 3 116 10 160 16 44 6 139 15 210 19 136 9 185 16 223 32 12 5 32 13
45 18 22 10 41 13 167 31 136 20 150 22 156 31 3 5 16 9 30 9 13 0 24 5 24 11
0 6 -8 8 -17 5 -93 -29 -153 -30 -2333 -32 -1351 -1 -2246 2 -2310 8 -260 24
-474 99 -700 246 -119 77 -194 134 -275 211 -60 57 -63 59 -22 14z"/>
<path d="M8320 1910 l-35 -31 37 23 c21 13 38 26 38 31 0 11 -3 9 -40 -23z"/>
<path d="M8260 1870 c-13 -8 -12 -10 3 -10 9 0 17 5 17 10 0 12 -1 12 -20 0z"/>
<path d="M8185 1825 c-49 -30 -40 -33 12 -4 44 24 50 29 37 29 -5 0 -27 -11
-49 -25z"/>
<path d="M8105 1779 c-16 -11 -23 -18 -15 -15 8 3 23 9 33 12 9 4 17 10 17 15
0 12 -1 12 -35 -12z"/>
<path d="M8040 1750 c-13 -8 -13 -10 2 -10 9 0 20 5 23 10 8 13 -5 13 -25 0z"/>
<path d="M8000 1730 c-9 -6 -10 -10 -3 -10 6 0 15 5 18 10 8 12 4 12 -15 0z"/>
<path d="M7953 1710 c-13 -5 -23 -11 -23 -14 0 -7 40 6 46 15 6 10 6 10 -23
-1z"/>
<path d="M2851 1686 c2 -2 24 -6 49 -10 31 -4 40 -3 30 4 -13 9 -89 15 -79 6z"/>
<path d="M7815 1655 c-24 -11 -26 -14 -9 -15 11 0 24 4 30 9 5 5 18 11 29 14
l20 5 -20 0 c-11 0 -33 -6 -50 -13z"/>
</g>
</svg>
